<?xml version="1.0" encoding="UTF-8" standalone="no"?>
<!DOCTYPE svg PUBLIC "-//W3C//DTD SVG 1.1//EN" "http://www.w3.org/Graphics/SVG/1.1/DTD/svg11.dtd">
<svg width="100%" height="100%" viewBox="0 0 256 256" version="1.1" xmlns="http://www.w3.org/2000/svg" xmlns:xlink="http://www.w3.org/1999/xlink" xml:space="preserve" xmlns:serif="http://www.serif.com/" style="fill-rule:evenodd;clip-rule:evenodd;stroke-linejoin:round;stroke-miterlimit:2;">
    <g transform="matrix(1,0,0,1,174,7)">
        <path d="M0,0C18.593,7.636 34.904,22.54 43,41C49.949,59.033 48.609,79.633 41.074,97.209C36.908,106.58 36.908,106.58 34.188,110.836C33.796,111.55 33.404,112.264 33,113C34.233,116.699 35.407,117.169 38.625,119.25C53.241,129.285 61.332,144.399 65.605,161.41C68.204,178.467 64.731,195.711 55,210C39.228,230.402 17.61,240.602 -7.25,245.375C-31.575,248.408 -60.984,246.841 -81.598,232.148C-84.134,230.167 -86.58,228.121 -89,226C-89.639,225.444 -90.279,224.889 -90.938,224.316C-98.951,216.857 -103.935,207.417 -107,197C-107.356,195.859 -107.712,194.718 -108.078,193.543C-112.477,175.45 -110.294,154.4 -100.885,138.386C-96.758,131.756 -91.753,126.258 -86,121C-84.661,119.672 -83.326,118.341 -82,117C-82.557,116.767 -83.114,116.533 -83.688,116.293C-87.54,114.139 -90.427,110.874 -93.563,107.801C-95.747,105.823 -95.747,105.823 -97.879,105.965C-101.038,107.507 -103.975,109.368 -106.938,111.25C-119.312,118.891 -131.92,123.365 -146.5,123.313C-147.848,123.337 -147.848,123.337 -149.223,123.361C-155.171,123.366 -159.572,122.459 -165,120C-166,119 -166,119 -166.375,116.25C-165.884,111.997 -164.102,110.625 -161,108C-159.96,107.029 -159.96,107.029 -158.898,106.039C-154.28,101.751 -149.504,97.76 -144.5,93.938C-143.669,93.296 -143.669,93.296 -142.821,92.642C-140.381,90.77 -137.935,88.957 -135.371,87.258C-127.657,81.884 -123.604,74.492 -118.828,66.598C-109.371,51.003 -109.371,51.003 -102,48C-89.079,46.302 -78.77,50.279 -68.504,57.941C-54.051,69.824 -45.617,83.5 -42,102C-41.042,101.995 -40.084,101.99 -39.098,101.984C-35.512,101.966 -31.926,101.955 -28.34,101.945C-26.794,101.94 -25.249,101.933 -23.703,101.925C-21.468,101.912 -19.234,101.907 -17,101.902C-16.319,101.897 -15.639,101.892 -14.938,101.887C-10.2,101.886 -5.68,102.34 -1,103C-2.831,79.713 -2.831,79.713 -8,57C-8.205,56.239 -8.41,55.479 -8.622,54.695C-10.338,48.497 -12.733,43.101 -15.875,37.5C-16.345,36.647 -16.816,35.794 -17.3,34.915C-21.284,27.874 -25.845,21.354 -30.847,15C-34.133,10.719 -35.965,7.609 -36,2C-28.804,-9.415 -10.818,-3.451 0,0Z" style="fill:rgb(75,55,56);fill-rule:nonzero;"/>
    </g>
    <g transform="matrix(1,0,0,1,175,43)">
        <path d="M0,0C5.323,-0.113 7.761,1.261 11.625,4.938C21.195,15.273 24.71,28.608 24.355,42.539C23.308,52.739 20.213,62.677 16,72C14.374,71.691 12.749,71.378 11.125,71.063C9.768,70.801 9.768,70.801 8.383,70.535C6,70 6,70 4,69C3.98,68.146 3.96,67.292 3.94,66.412C3.501,38.96 3.501,38.96 0.441,11.719C0.021,9.128 -0.102,6.744 -0.063,4.125C-0.053,3.344 -0.044,2.563 -0.035,1.758C-0.024,1.178 -0.012,0.598 0,0Z" style="fill:rgb(250,249,249);fill-rule:nonzero;"/>
    </g>
    <g transform="matrix(1,0,0,1,224,180)">
        <path d="M0,0C0.411,9.123 0.027,15.59 -5.188,23.188C-13.271,31.271 -22.62,34.26 -33.938,34.438C-43.831,34.352 -52.011,31.975 -59.273,25.07C-62.841,20.792 -66,15.66 -66,10C-58.177,7.706 -51.155,6.567 -43,7C-42.841,7.797 -42.683,8.593 -42.52,9.414C-41.087,15.918 -39.936,20.425 -35,25C-30.303,27.907 -25.348,27.497 -20,27C-14.266,25.019 -11.381,21.831 -8.75,16.438C-7.63,11.303 -7.848,6.233 -8,1C-5.072,0.024 -3.044,-0.082 0,0Z" style="fill:rgb(250,248,248);fill-rule:nonzero;"/>
    </g>
    <g transform="matrix(1,0,0,1,72,182)">
        <path d="M0,0C2.938,0.141 5.875,0.287 8.813,0.438C9.646,0.477 10.479,0.516 11.338,0.557C12.542,0.619 12.542,0.619 13.77,0.684C14.877,0.739 14.877,0.739 16.007,0.795C18,1 18,1 21,2C21.147,3.16 21.147,3.16 21.297,4.344C22.774,14.956 22.774,14.956 28.652,23.598C33.283,26.997 37.63,27.776 43.316,27.477C48.453,26.564 52.254,24.444 55.309,20.168C57.729,15.673 58.935,10.969 60,6L64,6C64.612,12.854 63.379,16.686 59,22C52.364,29.213 46.07,31.951 36.32,32.45C25.615,32.707 16.245,30.108 8,23C2.741,17.901 0.125,9.847 -0.109,2.621C-0.073,1.756 -0.037,0.891 0,0Z" style="fill:rgb(250,249,248);fill-rule:nonzero;"/>
    </g>
    <g transform="matrix(1,0,0,1,91,93)">
        <path d="M0,0C8.375,3.898 15.069,8.34 19,17C19.389,18.99 19.734,20.99 20,23C18.091,24.035 16.173,25.053 14.25,26.063C13.183,26.631 12.115,27.199 11.016,27.785C8,29 8,29 5.953,28.984C3.017,27.505 0.892,25.432 -1.5,23.188C-2.908,21.878 -2.908,21.878 -4.344,20.543C-6.593,18.39 -8.811,16.214 -11,14C-10.457,13.325 -9.915,12.649 -9.355,11.953C-8.64,11.061 -7.925,10.169 -7.188,9.25C-6.48,8.368 -5.772,7.487 -5.043,6.578C-3.325,4.41 -1.646,2.223 0,0Z" style="fill:rgb(250,249,248);fill-rule:nonzero;"/>
    </g>
    <g transform="matrix(1,0,0,1,224,180)">
        <path d="M0,0C0.411,9.123 0.027,15.59 -5.188,23.188C-11.901,29.901 -18.787,32.111 -28,34C-27.34,32.35 -26.68,30.7 -26,29C-26.66,28.67 -27.32,28.34 -28,28C-27.276,27.914 -26.551,27.827 -25.805,27.738C-19.353,26.801 -15.34,25.991 -11,21C-7.224,14.789 -7.683,8.043 -8,1C-5.072,0.024 -3.044,-0.082 0,0Z" style="fill:rgb(248,244,245);fill-rule:nonzero;"/>
    </g>
    <g transform="matrix(1,0,0,1,106,185)">
        <path d="M0,0C6.93,0.495 6.93,0.495 14,1C14.325,5.719 14.391,8.188 12.313,12.5C10,15 10,15 7.5,15.688C5,15 5,15 2.75,13.125C0.281,8.716 0.268,5.031 0,0Z" style="fill:rgb(248,245,242);fill-rule:nonzero;"/>
    </g>
    <g transform="matrix(1,0,0,1,206,183)">
        <path d="M0,0C0.618,9.954 0.618,9.954 -1.625,13.75C-4,15 -4,15 -7,15.188C-10.656,13.74 -11.513,12.333 -13.336,8.984C-14.141,6.579 -14.113,4.52 -14,2C-12.042,1.665 -10.084,1.332 -8.125,1C-6.489,0.722 -6.489,0.722 -4.82,0.438C-2,0 -2,0 0,0Z" style="fill:rgb(248,246,245);fill-rule:nonzero;"/>
    </g>
    <g transform="matrix(1,0,0,1,132,188)">
        <path d="M0,0L4,0C4.612,6.854 3.379,10.686 -1,16C-6.355,21.821 -11.906,25.654 -19.961,26.111C-24.646,26.242 -29.317,26.155 -34,26L-34,25L-25,25C-24.67,24.01 -24.34,23.02 -24,22C-23.371,21.986 -22.742,21.972 -22.094,21.957C-15.673,21.599 -10.789,20.478 -6,16C-2.551,11.196 -1.223,5.708 0,0Z" style="fill:rgb(240,236,234);fill-rule:nonzero;"/>
    </g>
    <g transform="matrix(1,0,0,1,80,108)">
        <path d="M0,0C5.964,3.61 10.896,8.28 16,13C13.058,15.942 13.058,15.942 10,16C7.756,14.295 5.863,12.653 3.875,10.688C3.337,10.175 2.8,9.663 2.246,9.135C0.137,7.117 -1.936,5.064 -4,3C-2.68,2.01 -1.36,1.02 0,0Z" style="fill:rgb(81,67,69);fill-rule:nonzero;"/>
    </g>
    <g transform="matrix(1,0,0,1,148.805,225.055)">
        <path d="M0,0C3.15,1.357 6.039,3.078 8.945,4.883C9.547,5.243 10.149,5.603 10.77,5.975C12.283,6.906 13.744,7.92 15.195,8.945L15.195,10.945C10.469,10.473 7.161,9.038 3.125,6.688C0.693,5.752 -0.401,6.01 -2.805,6.945C-4.073,7.966 -4.073,7.966 -5.367,9.008C-7.805,10.945 -7.805,10.945 -10.805,10.945C-9.414,7.841 -7.789,5.58 -5.43,3.133C-4.844,2.508 -4.259,1.882 -3.656,1.238C-1.805,-0.055 -1.805,-0.055 0,0Z" style="fill:rgb(239,231,231);fill-rule:nonzero;"/>
    </g>
    <g transform="matrix(1,0,0,1,126,206)">
        <path d="M0,0C-0.215,1.859 -0.215,1.859 -1,4C-9.032,9.236 -18.859,8.413 -28,8L-28,7L-19,7C-18.67,6.01 -18.34,5.02 -18,4C-17.348,3.963 -16.695,3.925 -16.023,3.887C-10.447,3.467 -5.043,0 0,0Z" style="fill:rgb(236,229,228);fill-rule:nonzero;"/>
    </g>
    <g transform="matrix(1,0,0,1,212,202)">
        <path d="M0,0L0,7C-10.374,11.408 -10.374,11.408 -16,12C-15.34,10.35 -14.68,8.7 -14,7C-14.66,6.67 -15.32,6.34 -16,6C-15.264,5.902 -14.528,5.804 -13.77,5.703C-6.132,4.545 -6.132,4.545 0,0Z" style="fill:rgb(242,237,234);fill-rule:nonzero;"/>
    </g>
    <g transform="matrix(1,0,0,1,212,202)">
        <path d="M0,0L0,7C-1.98,7.66 -3.96,8.32 -6,9C-6.66,7.68 -7.32,6.36 -8,5C-7.051,4.546 -6.103,4.093 -5.125,3.625C-1.997,2.198 -1.997,2.198 0,0Z" style="fill:rgb(231,226,224);fill-rule:nonzero;"/>
    </g>
    <g transform="matrix(1,0,0,1,129,200)">
        <path d="M0,0C0.66,1.32 1.32,2.64 2,4C0.35,5.32 -1.3,6.64 -3,8C-3.33,7.01 -3.66,6.02 -4,5C-2.063,2.313 -2.063,2.313 0,0Z" style="fill:rgb(251,242,242);fill-rule:nonzero;"/>
    </g>
    <g transform="matrix(1,0,0,1,92,118)">
        <path d="M0,0C1.32,1.32 2.64,2.64 4,4C2.02,4.66 0.04,5.32 -2,6C-1.34,4.02 -0.68,2.04 0,0Z" style="fill:rgb(94,78,78);fill-rule:nonzero;"/>
    </g>
    <g transform="matrix(1,0,0,1,148,226)">
        <path d="M0,0C1.65,0.33 3.3,0.66 5,1C4.67,1.66 4.34,2.32 4,3C0.938,3.625 0.938,3.625 -2,4C-1.34,2.68 -0.68,1.36 0,0Z" style="fill:rgb(248,244,243);fill-rule:nonzero;"/>
    </g>
</svg>
